<svg width="926" height="209" viewBox="0 0 926 209" fill="none" xmlns="http://www.w3.org/2000/svg">
<path d="M333.036 156.407H305.312C290.543 156.407 279.739 146.043 279.739 132.103V125.445H297.746V133.01C297.756 134.712 298.412 136.346 299.581 137.582C300.75 138.818 302.345 139.564 304.043 139.669H334.306C336.004 139.564 337.599 138.818 338.768 137.582C339.937 136.346 340.592 134.712 340.602 133.01V119.511C340.602 108.888 319.356 112.489 306.012 112.127C291.45 111.582 280.464 101.762 280.464 87.6413V75.9298C280.464 61.8864 291.269 51.6259 306.012 51.6259H331.585C346.354 51.6259 357.159 61.99 357.159 75.9298V82.7701H339.151V74.997C339.141 73.2957 338.486 71.6617 337.317 70.4255C336.148 69.1892 334.553 68.4431 332.855 68.3381H304.768C303.07 68.4431 301.475 69.1892 300.306 70.4255C299.138 71.6617 298.482 73.2957 298.472 74.997V88.6777C298.472 99.301 319.719 95.6994 333.036 95.8808C347.443 96.2435 358.61 106.245 358.61 120.366V132.078C358.61 146.147 347.805 156.407 333.036 156.407Z" fill="white"/>
<path d="M464.117 96.2692L441.057 119.148V156.044H422.713V119.148L399.652 96.2692C397.268 94.2203 395.404 91.6344 394.215 88.7244C393.026 85.8143 392.545 82.6634 392.812 79.5311V51.6256H410.949V78.8056C410.949 82.5885 410.949 83.1326 413.281 85.2832L431.833 104.198L450.566 85.2832C452.898 83.1326 452.898 82.6922 452.898 78.8056V51.6256H471.035V79.5311C471.293 82.6698 470.8 85.8248 469.597 88.7353C468.394 91.6457 466.516 94.2282 464.117 96.2692V96.2692Z" fill="white"/>
<path d="M574.676 156.044V81.5003L555.58 103.472H544.413L525.343 81.5003V156.044H507.024V51.6256H521.974L550.554 84.9205C551.253 82.7699 578.096 51.6256 578.096 51.6256H593.047V156.044H574.676Z" fill="white"/>
<path d="M679.46 156.044H629.038V51.6256H679.46C694.229 51.6256 705.37 62.2489 705.37 76.2923V86.9155C705.561 90.0039 705.025 93.094 703.806 95.9379C702.586 98.7817 700.717 101.3 698.348 103.291C700.644 105.067 702.48 107.369 703.702 110.002C704.924 112.635 705.496 115.523 705.37 118.423V131.378C705.396 145.421 694.229 156.044 679.46 156.044ZM687.026 75.0227C687.025 73.2469 686.374 71.5328 685.194 70.2053C684.015 68.8777 682.389 68.0289 680.626 67.8196H646.942V95.0255H678.993C685.497 95.0255 687.103 93.0304 687.103 86.7342L687.026 75.0227ZM687.026 120.029C687.026 113.37 685.419 111.401 679.641 111.401H646.942V140.032H680.626C682.37 139.799 683.971 138.94 685.129 137.615C686.288 136.29 686.925 134.589 686.922 132.829L687.026 120.029Z" fill="white"/>
<path d="M798.309 156.044H766.983C752.215 156.044 741.41 145.68 741.41 131.741V75.9295C741.41 61.8861 752.215 51.6256 766.983 51.6256H798.309C813.078 51.6256 823.883 61.9898 823.883 75.9295V131.741C823.883 145.784 813.078 156.044 798.309 156.044ZM805.875 75.0227C805.865 73.3214 805.209 71.6873 804.04 70.4511C802.872 69.2149 801.277 68.4688 799.579 68.3637H765.714C764.016 68.4688 762.421 69.2149 761.252 70.4511C760.083 71.6873 759.428 73.3214 759.418 75.0227V132.647C759.428 134.349 760.083 135.983 761.252 137.219C762.421 138.455 764.016 139.201 765.714 139.306H799.579C801.277 139.201 802.872 138.455 804.04 137.219C805.209 135.983 805.865 134.349 805.875 132.647V75.0227Z" fill="white"/>
<path d="M859.9 156.044V51.6256H878.607V139.306H925.427V156.044H859.9Z" fill="white"/>
<path d="M104.406 0.302326C140.229 0.302326 174.011 11.1838 205.101 29.049L207.421 30.0699L206.725 32.506C206.627 67.5167 197.132 101.859 179.231 131.948C161.863 162.746 136.615 188.371 106.077 206.193L104.406 207.399L102.62 206.123C71.6921 188.211 48.2586 162.991 30.4862 132.041C12.7138 101.09 2.04114 66.7051 1.99474 30.9747L1.69312 29.3042L2.89959 28.353C33.92 10.4646 68.5599 0.093514 104.36 0.0703125" fill="#8D33E5"/>
<path d="M206.216 28.0511C175.293 10.0564 140.184 0.503191 104.407 0.34845V206.216L106.728 207.608C137.534 189.665 163.076 163.932 180.787 132.992C198.728 102.256 208.236 67.3286 208.35 31.7401V29.1879L206.216 28.0511Z" fill="#7000DF"/>
<path d="M208.676 31.346V28.6315L206.356 27.2858C175.332 9.40954 140.156 6.10352e-05 104.35 6.10352e-05C68.5451 6.10352e-05 33.3685 9.40954 2.34493 27.2858L0.0247803 28.6315V31.346C0.110265 67.1032 9.58487 102.211 27.5006 133.156C45.4162 164.101 71.1447 189.799 102.111 207.678L104.432 209L106.752 207.678C137.734 189.817 163.476 164.123 181.394 133.174C199.312 102.225 208.776 67.1079 208.838 31.346H208.676ZM104.269 198.675C44.2237 163.595 5.73235 100.765 5.33793 31.2068C35.5825 14.1849 69.7028 5.24275 104.408 5.24275C139.114 5.24275 173.234 14.1849 203.479 31.2068C203.131 100.951 164.593 163.595 104.362 198.606L104.269 198.675Z" fill="#7000DF"/>
<path d="M104.407 198.605C44.2221 163.594 5.73078 100.764 5.33635 31.2062C35.5925 14.213 69.7052 5.27344 104.407 5.24373V0.00018683C68.5751 -0.00665126 33.3706 9.40255 2.32015 27.2852L0 28.6309V31.3454C0.0854845 67.1026 9.5601 102.21 27.4758 133.156C45.3915 164.101 71.1199 189.798 102.087 207.677L104.407 208.999V198.605Z" fill="#8D33E5"/>
<path d="M170.022 65.0115C170.023 64.2213 169.889 63.4367 169.627 62.6913C167.297 55.9766 163.854 49.7019 159.442 44.1301C158.398 42.6916 157.121 41.3459 156.008 39.9306L155.103 38.8866C154.724 38.4756 154.286 38.1236 153.804 37.8425C152.848 37.283 151.755 37.0017 150.648 37.0304C150.103 37.0692 149.565 37.1783 149.047 37.3553C148.796 37.4259 148.555 37.5272 148.328 37.6569C148.328 37.6569 110.324 58.2366 104.431 61.2992C98.5608 58.2366 60.7655 37.5177 59.8607 37.4481C59.3433 37.2711 58.8052 37.162 58.2598 37.1232C57.1461 37.0999 56.0472 37.3806 55.0812 37.9353C54.5969 38.2044 54.1647 38.558 53.8051 38.9794L52.9002 40.0234C51.717 41.3691 50.5801 42.7148 49.4664 44.2229C45.2665 49.6025 41.8743 55.5663 39.3969 61.9257C38.9381 62.8896 38.7003 63.9439 38.7009 65.0115C38.6888 66.0851 38.9157 67.148 39.3651 68.1232C39.8146 69.0983 40.4753 69.9612 41.2995 70.6494C41.4458 70.793 41.6095 70.9177 41.7867 71.0207L42.2739 71.3455L42.9932 71.8327L48.956 75.545L60.812 82.923L72.6911 90.3939L82.575 96.3103L82.7142 138.073V142.713V145.034C82.6818 145.474 82.6818 145.916 82.7142 146.356C82.7897 147.152 82.9771 147.933 83.271 148.676C83.896 150.043 84.8435 151.237 86.032 152.156C87.2549 153.038 88.632 153.683 90.0923 154.059C91.5837 154.439 93.0938 154.741 94.6166 154.964C101.019 155.869 107.517 155.869 113.92 154.964C116.24 154.593 116.82 154.453 118.352 154.105C119.856 153.791 121.264 153.123 122.458 152.156C123.647 151.237 124.594 150.043 125.219 148.676C125.513 147.933 125.701 147.152 125.776 146.356C125.776 145.846 125.776 145.451 125.776 145.034C125.776 145.034 126.287 107.377 126.124 96.4263L135.892 90.4635L148.026 82.8766L159.975 75.429L165.915 71.6935C167.155 71.0741 168.197 70.1199 168.923 68.939C169.648 67.7581 170.029 66.3976 170.022 65.0115V65.0115Z" fill="#3F017F"/>
<path d="M87.0978 93.9901C87.1088 90.4627 86.3153 86.9793 84.7777 83.8046C83.2451 80.6471 81.0254 77.8725 78.2812 75.6841C70.4623 69.4429 58.2815 67.1924 46.472 69.7677C45.7063 69.9069 43.5486 68.6077 42.7829 68.4452C42.7829 68.4452 42.5973 68.306 43.0149 68.6773C43.4326 69.0485 43.3398 69.3501 43.4326 69.4197L87.0978 94.4541V93.9901Z" fill="#F4A900"/>
<path d="M125.312 66.5657C134.593 62.9231 142.644 53.5264 146.333 42.0649C146.611 41.2296 148.073 41.0208 148.653 40.464C148.862 40.3016 148.166 39.5591 148.398 39.4199L104.315 64.7792L104.872 65.0808C107.923 66.8588 111.34 67.9168 114.862 68.1741C118.384 68.4315 121.919 67.8813 125.196 66.5657H125.312Z" fill="#78B6E4"/>
<path d="M120.925 95.1502C117.91 96.9167 115.337 99.3479 113.403 102.259C111.469 105.17 110.225 108.484 109.766 111.948C108.373 121.832 112.48 133.433 120.577 142.249C121.204 142.899 121.157 144.129 121.297 144.987C121.297 145.219 121.552 145.219 121.784 145.358L121.97 94.6398L120.925 95.1502Z" fill="#20B5AC"/>
<path d="M111.808 113.874C112.415 110.409 113.802 107.128 115.864 104.278C117.926 101.428 120.609 99.0841 123.71 97.4238L121.9 94.5933L120.926 95.1965C117.903 96.9469 115.329 99.3777 113.409 102.296C111.479 105.213 110.234 108.528 109.766 111.994C108.583 120.602 111.576 130.672 117.863 139.001C113.118 131.527 110.988 122.689 111.808 113.874V113.874Z" fill="#3F017F"/>
<path d="M125.729 63.9672C122.419 65.1575 118.882 65.5797 115.385 65.2018C111.888 64.824 108.523 63.656 105.544 61.7862L103.943 64.7328L104.941 65.3361C107.971 67.0704 111.354 68.0984 114.837 68.3434C118.32 68.5885 121.813 68.0443 125.056 66.7514C134.29 62.57 141.705 55.1965 145.938 45.986C145.938 45.8236 145.311 45.058 144.662 46.45C140.479 54.2359 133.816 60.4013 125.729 63.9672V63.9672Z" fill="#3F017F"/>
<path d="M75.8226 77.1923C78.429 79.3054 80.4877 82.0154 81.8245 85.0929C83.1613 88.1704 83.7368 91.5247 83.5023 94.8718L86.8434 95.9159L87.8874 94.779C88.0962 87.8186 85.0104 78.886 79.4653 74.3617C73.0384 68.9325 59.4888 67.1228 50.3938 68.4685C50.0457 68.4685 49.8833 69.0485 52.2731 68.9557C60.8464 68.8516 69.1831 71.7674 75.8226 77.1923V77.1923Z" fill="#3F017F"/>
<path d="M104.407 151.182C99.7069 151.193 95.0264 150.584 90.4857 149.372C89.5319 149.105 88.6887 148.54 88.0792 147.759C87.4697 146.979 87.126 146.024 87.0983 145.034V93.9903C87.1233 90.4892 86.3557 87.0279 84.8529 83.8657C83.3502 80.7035 81.1512 77.9223 78.4209 75.7307C70.602 69.4895 58.4212 67.2389 46.6116 69.8143C46.0208 69.9536 45.4079 69.972 44.8098 69.8683C44.2118 69.7647 43.6408 69.5411 43.1314 69.2111C42.0898 68.5628 41.3474 67.5284 41.0664 66.3341C40.8599 65.4539 40.9246 64.5318 41.252 63.6891C42.7393 59.4628 44.5867 55.3721 46.774 51.4619C49.0688 47.3824 51.9102 43.6355 55.2194 40.3252C55.9462 39.6351 56.8769 39.1989 57.8723 39.0818C58.8677 38.9646 59.8742 39.173 60.7413 39.6755L103.78 64.4548L104.917 65.1276C107.96 66.9074 111.372 67.9629 114.888 68.2124C118.405 68.4618 121.931 67.8985 125.195 66.5661C134.476 62.9235 142.55 53.5268 146.239 42.0653C146.417 41.4803 146.709 40.9363 147.097 40.4644C147.508 40.006 147.995 39.6214 148.536 39.3275C149.08 39.0491 149.669 38.8685 150.276 38.7939C150.887 38.7263 151.506 38.7977 152.086 39.0027C152.935 39.2768 153.69 39.7831 154.267 40.4644C157.18 43.8854 159.796 47.5491 162.086 51.4155C164.491 55.4589 166.304 59.8267 167.468 64.3852C167.709 65.3591 167.628 66.3848 167.236 67.3085C166.851 68.2342 166.164 69.0026 165.287 69.4895L121.993 94.4543L120.81 95.1504C117.806 96.93 115.242 99.3649 113.31 102.273C111.377 105.182 110.126 108.489 109.65 111.948C108.258 121.832 112.365 133.433 120.462 142.249C121.027 142.864 121.415 143.619 121.587 144.436C121.758 145.252 121.706 146.1 121.436 146.89C121.162 147.675 120.681 148.372 120.044 148.908C119.378 149.458 118.577 149.818 117.724 149.952C113.323 150.705 108.871 151.116 104.407 151.182V151.182Z" fill="white"/>
</svg>
